<svg xmlns="http://www.w3.org/2000/svg" xmlns:xlink="http://www.w3.org/1999/xlink" version="1.1" x="0px" y="0px" viewBox="0 0 100 100" enable-background="new 0 0 100 100" xml:space="preserve" width="32" height="32" fill="rgba(0, 0, 0, 1.0)"><g transform="translate(0.000000,1061.000000) scale(0.100000,-0.100000)"><path d="M344,10364.5c-110.9-19.9-202.7-36.5-203.9-36.9c-2.6-0.7-5.1-3.7-5.7-6.5c-0.2-1.2,1.7-13.4,5.1-32.5   c3-16.8,5.5-30.8,5.3-30.8c-0.1-0.1-8.6-2.5-18.9-5.4c-10.3-2.8-19.4-5.6-20.2-6.2c-2-1.3-3.3-3.5-3.7-5.9   c-0.4-3.2,81.6-299.3,83.5-301.4c1.9-2,4.4-3.3,6.5-3.3c0.9,0.1,9.5,2.2,19.1,4.9c15.2,4.3,17.4,4.7,17.8,3.8   c0.2-0.6,1.3-6.4,2.4-13.1c2.1-13.4,2.5-14.7,4.8-17c3.4-3.3-2.7-4.2,114.5,15.5c59.7,10,108.8,18.2,108.9,18.2   c0.2,0,0.4-24.6,0.5-54.7l0.2-54.6l1.4-4c4.1-11.5,12.3-19.6,23.3-23.4l5-1.7h191.1c183.6,0,191.2,0.1,194.7,1.1   c5.8,1.8,10.5,4.5,14.7,8.3c5,4.6,8.2,9.7,10.2,15.8l1.5,4.9V9946c0,118.1,0.3,109.4-4.2,118.1c-2.6,5-8.3,11.1-12.8,13.7   c-1.7,1-4.8,2.5-7.1,3.3l-4.1,1.6l-117.2,0.2c-64.5,0.1-117.2,0.3-117.2,0.5c0,2.8-35.1,208.6-35.8,210.2c-1.4,2.9-4.6,5-7.8,5   c-1.4-0.1-7-0.9-12.4-1.8c-5.5-1-10-1.7-10.2-1.5c-0.2,0.2-4.3,22.7-9.2,50c-6.4,36-9.2,50.1-10,51.2c-1.7,2.4-4,3.8-6.3,4.1   C546.5,10400.6,461.5,10385.6,344,10364.5z M547.4,10336.6c4.3-24.3,7.8-44.4,7.7-44.5c-0.2-0.2-23-4-23.2-3.8   c-0.1,0.1-4.1,14.4-8.9,31.7c-4.8,17.4-9.2,32.3-9.8,33.1c-1.9,2.6-4.2,4-6.8,4c-1.3-0.1-79.1-21.2-172.9-47.2   c-105.3-29.1-170.8-46.9-171-46.5c-0.6,1.1-8.9,48.3-8.5,48.7c0.4,0.4,381.4,68.8,383.8,68.9l1.6,0.1L547.4,10336.6z    M506.9,10311.1c4-14.2,7-26,6.8-26c-0.2-0.1-71.8-12.2-159.2-26.8c-87.4-14.7-160.7-27-162.8-27.4c-4.6-0.7-7.7-3.1-8.7-6.5   c-0.5-1.9,3-23.7,21-131.1c12-70.9,21.7-129.2,21.7-129.6c0-0.4-6.1-2.4-13.4-4.4c-11.8-3.3-13.6-3.6-13.9-2.7   c-0.6,1.1-75.3,272-75.9,274.6c-0.2,0.9-0.2,1.7-0.1,1.7s84.9,23.4,188.2,52c103.4,28.6,188.3,52,188.6,52   C499.5,10337,503,10325.3,506.9,10311.1z M588.6,10278.7c0-0.7,32-192.1,32.5-194.2l0.3-1.4h-13.5h-13.6l-55.3,39.5   c-53.5,38.1-55.5,39.5-58.5,39.6c-2.3,0.2-3.6-0.1-5-0.9c-1.2-0.7-21.9-29.4-55.4-76.4c-29.4-41.4-53.7-75.4-53.9-75.7   c-0.2-0.3-16.5,11-36.2,25c-19.6,14.1-36.7,25.9-37.9,26.4c-2.7,1.1-5.9,0.6-8.2-1.4c-0.9-0.8-11.5-15.1-23.3-31.8   c-11.9-16.7-21.7-30.3-21.9-30.3c-0.6,0-36.7,216.8-36.3,217.3c0.4,0.4,382.1,64.9,385.2,65.1   C588.1,10279.3,588.6,10279.1,588.6,10278.7z M523.1,10111.8l40-28.5l-37.2-0.3c-40.6-0.4-38.6-0.2-46.6-4.1   c-5.5-2.7-12.5-9.8-15.4-15.7c-4-8.4-4.1-8.6-4.1-55.1v-41.8l-104.5-17.5c-57.5-9.6-104.9-17.5-105.2-17.5   c-0.7,0-7.3,37.8-6.9,39.8c0.2,0.7,11.1,16.5,24.3,35l24,33.6l1.7-1.2c41.2-29.5,70.9-50.4,72.8-51c3.6-1.1,6.8,0.1,9.6,3.8   c1.2,1.6,25.7,35.9,54.3,76.1c28.6,40.3,52.3,73.1,52.7,73C482.8,10140.4,501.2,10127.5,523.1,10111.8z M516.9,10042.3   c0.9-0.5,2.3-1.7,2.9-2.8c1.2-1.9,1.2-3.8,1.2-93.5v-91.5l-2.4-2.6c-2.4-2.5-2.6-2.6-6.2-2.6c-4.2,0-6.3,1.2-8.2,4.6   c-1.1,2-1.2,5.8-1.2,92.2c0,97.2-0.2,92.2,3.2,95.4C509.3,10044.1,513,10044.4,516.9,10042.3z M851.4,10042.5   c2.4-1,5.1-3.8,5.9-6.1c0.4-1,0.7-5.5,0.7-9.9c-0.1-11-1.5-14.2-7.2-16.3c-3.1-1.1-36-1.2-39.3-0.2c-3.2,1.1-6.5,4.6-7.3,7.7   c-0.9,3.3-0.9,14.7-0.1,17.7c0.8,2.9,3,5.6,5.7,6.9c1.7,0.9,4.8,1.1,20.8,1.1C845.2,10043.4,849.9,10043.2,851.4,10042.5z    M688.9,10027.3c20.4-2.2,37.7-10.4,52-24.9c32.3-32.7,32.3-85.4-0.2-117.9c-11.3-11.3-23.8-18.5-39.1-22.3   c-20.1-5.1-40.2-2.8-59.1,6.9c-19.7,10-35.3,28.7-41.7,49.8c-2.8,9.5-3.7,15.9-3.3,27.6c0.2,9.1,0.6,11.5,2.2,17.7   c9,34.6,37.8,59.5,72.9,63.1C679.6,10028,682.3,10028,688.9,10027.3z"></path><path d="M327.5,10213.1c-24.1-4.3-43.1-22-49.2-45.7c-0.7-2.6-1.4-7.7-1.6-11.3c-1.6-28.6,16.2-53.7,44.2-62.3   c5.1-1.5,6.3-1.7,16.7-1.7s11.5,0.1,16.7,1.7c11.1,3.4,18.5,7.7,26.8,16c24.3,24,23.6,63.5-1.5,87.3c-7.8,7.4-16.1,12-26.7,14.9   C347.4,10213.4,332.9,10214,327.5,10213.1z M351.2,10193.7c11.1-3.8,19.9-11.6,25-21.8c3.3-6.8,4.5-11.7,4.5-19.2   c0-16.7-8.9-31.1-23.8-38.7c-6.8-3.4-12.6-4.5-21.4-4.2c-12,0.5-19.6,3.9-28.4,12.6c-8.3,8.2-12.6,18.6-12.6,30.3   c0,19.6,13.2,36.7,32.3,41.8C333.2,10196.3,344.9,10195.9,351.2,10193.7z"></path><path d="M671.6,10008.9c-36.9-5.8-61.8-40.2-55.4-76.7c5.9-33.6,37.1-57.4,70.9-54.2c16.8,1.6,30,8.2,42.1,20.8   c24.5,25.7,23.4,67.4-2.4,92.1c-9.8,9.4-20.6,15-33.7,17.5C688.6,10009.2,675.7,10009.6,671.6,10008.9z M691.3,9995.3   c19.1-3.9,33.9-17.2,40-35.7c2-6.1,3.1-15.2,2.2-18.4c-0.8-2.9-4.1-6-7.1-6.5c-5-1-9.9,2.8-10.5,8.2c-1.1,8.9-1.8,11.9-4,16.3   c-5.4,11-18.3,19.1-30.3,19.2c-3,0-5.3,1.1-7.6,3.4c-1.3,1.4-1.5,2.2-1.5,5.6c0,3.5,0.2,4.2,1.9,5.9c1.1,1.1,2.4,2.2,3.1,2.5   C679.5,9996.6,686.2,9996.4,691.3,9995.3z"></path></g></svg>