<svg width="36" height="36" viewBox="0 0 36 36" fill="none" xmlns="http://www.w3.org/2000/svg"><path d="M4.5 12c0 .825.675 1.5 1.5 1.5s1.5-.675 1.5-1.5V9h3c.825 0 1.5-.675 1.5-1.5S11.325 6 10.5 6h-3V3c0-.825-.675-1.5-1.5-1.5S4.5 2.175 4.5 3v3h-3C.675 6 0 6.675 0 7.5S.675 9 1.5 9h3v3z" fill="#fff"/><circle cx="19.5" cy="21" r="4.5" fill="#fff"/><path fill-rule="evenodd" clip-rule="evenodd" d="M26.745 9H31.5c1.65 0 3 1.35 3 3v18c0 1.65-1.35 3-3 3h-24c-1.65 0-3-1.35-3-3V14.58c.45.255.945.42 1.5.42 1.65 0 3-1.35 3-3v-1.5h1.5c1.65 0 3-1.35 3-3 0-.555-.165-1.05-.42-1.5h9.6c.84 0 1.65.36 2.205.975L26.745 9zM12 21c0 4.14 3.36 7.5 7.5 7.5 4.14 0 7.5-3.36 7.5-7.5 0-4.14-3.36-7.5-7.5-7.5-4.14 0-7.5 3.36-7.5 7.5z" fill="#fff"/></svg>